<?xml version="1.0" encoding="UTF-8"?>
<svg version="1.1" xmlns="http://www.w3.org/2000/svg" width="500" height="500">
<path d="M0 0 C165 0 330 0 500 0 C500 165 500 330 500 500 C335 500 170 500 0 500 C0 335 0 170 0 0 Z " fill="#000000" transform="translate(0,0)"/>
<path d="M0 0 C1.02931641 -0.02900391 2.05863281 -0.05800781 3.11914062 -0.08789062 C13.70746354 -0.17495463 21.60057301 2.76041694 29.26953125 10.1171875 C34.1808978 15.73875165 36.007549 21.79533383 35.6953125 29.2265625 C33.87032601 40.316865 28.30129812 49.78380281 21.1875 58.3125 C20.49785156 59.14136719 19.80820312 59.97023437 19.09765625 60.82421875 C14.91181364 65.64588555 10.42465415 70.09654942 5.75 74.4375 C5.22954102 74.92347656 4.70908203 75.40945312 4.17285156 75.91015625 C0.4327389 79.3125 0.4327389 79.3125 -1.8125 79.3125 C-1.8125 79.9725 -1.8125 80.6325 -1.8125 81.3125 C-0.905 81.209375 0.0025 81.10625 0.9375 81 C9.86214106 81.01810272 18.75098813 86.48211705 25.1875 92.3125 C25.74179687 92.81265625 26.29609375 93.3128125 26.8671875 93.828125 C33.38825642 100.51140957 35.39520706 109.2632102 35.625 118.375 C35.05397655 135.15572133 27.59852565 148.37872719 15.76220703 159.84326172 C2.18225602 172.51367182 -14.99145592 180.57799557 -32.8125 185.3125 C-33.80854248 185.58102783 -34.80458496 185.84955566 -35.83081055 186.1262207 C-44.90212149 188.3349162 -53.55074471 188.8089084 -62.8527832 188.75854492 C-65.24452579 188.75001951 -67.63388081 188.77894749 -70.02539062 188.81054688 C-91.84646076 188.90900068 -111.91997634 181.55042862 -128.0625 166.625 C-138.82118969 155.13844969 -145.26864091 140.78271282 -147.8125 125.3125 C-147.92335937 124.66925781 -148.03421875 124.02601563 -148.1484375 123.36328125 C-149.71784616 112.22896308 -149.22497128 100.43571136 -147.8125 89.3125 C-147.4825 89.3125 -147.1525 89.3125 -146.8125 89.3125 C-146.74780518 90.04662109 -146.68311035 90.78074219 -146.61645508 91.53710938 C-144.55818546 114.10917173 -142.00535658 138.69035879 -123.42578125 154.3203125 C-120.94883961 156.11677567 -118.43907515 157.74379509 -115.8125 159.3125 C-115.04292969 159.77398437 -114.27335937 160.23546875 -113.48046875 160.7109375 C-96.31258942 170.10629435 -75.15542003 170.88417069 -56.34375 166.41015625 C-49.54424884 164.2965945 -43.17490453 161.49293847 -36.8125 158.3125 C-36.12978027 157.97444336 -35.44706055 157.63638672 -34.74365234 157.28808594 C-17.54036847 148.61967049 -4.82012813 137.41357892 1.4609375 118.625 C1.70070313 117.861875 1.94046875 117.09875 2.1875 116.3125 C2.5175 115.3225 2.8475 114.3325 3.1875 113.3125 C3.25779121 110.73984182 3.28120832 108.19608569 3.25 105.625 C3.24323242 104.5721582 3.24323242 104.5721582 3.23632812 103.49804688 C3.22456927 101.76949462 3.20663454 100.04098635 3.1875 98.3125 C3.01734375 99.20710938 2.8471875 100.10171875 2.671875 101.0234375 C-0.54340927 117.06565369 -5.77605097 127.99197785 -18.8125 138.3125 C-18.6475 137.549375 -18.4825 136.78625 -18.3125 136 C-17.03381681 126.5697115 -17.18233587 119.32623727 -22.8125 111.3125 C-31.66964527 101.23774274 -44.40434544 97.93026219 -56.8125 94.3125 C-55.72949761 91.06349283 -55.18090631 90.56543388 -52.625 88.5 C-48.47088629 84.97575191 -44.60098101 81.22290965 -40.75 77.375 C-39.88435425 76.51588013 -39.88435425 76.51588013 -39.0012207 75.6394043 C-26.01957745 62.61731406 -8.73733762 45.14032074 -5.6875 26.25 C-5.81817577 21.1590966 -5.81817577 21.1590966 -8.8125 17.3125 C-14.07077596 14.72526063 -19.01457848 13.9424199 -24.8125 14.3125 C-24.22082031 14.48265625 -23.62914062 14.6528125 -23.01953125 14.828125 C-18.25430431 16.28956491 -14.3161687 17.58985201 -10.8125 21.3125 C-10.1875 23.9453125 -10.1875 23.9453125 -9.8125 26.3125 C-10.79347656 26.77398437 -11.77445313 27.23546875 -12.78515625 27.7109375 C-28.50093893 35.24477184 -41.95677948 44.56321444 -54.8125 56.3125 C-55.68390625 57.10011719 -56.5553125 57.88773438 -57.453125 58.69921875 C-76.14221558 76.4538548 -91.98907473 100.58097201 -92.94140625 126.87109375 C-93.05330169 134.278572 -92.70398545 141.13498823 -90.8125 148.3125 C-101.99730832 137.86686162 -107.72418844 123.08990372 -108.28125 107.96655273 C-108.54312064 86.24970262 -99.77179439 67.35115489 -86.8125 50.3125 C-86.18472656 49.46171875 -85.55695313 48.6109375 -84.91015625 47.734375 C-67.18973771 24.85573562 -44.81000304 6.15675523 -15.66796875 0.7265625 C-10.43896101 0.1649872 -5.25602707 0.04881759 0 0 Z " fill="#E13D7D" transform="translate(306.8125,111.6875)"/>
<path d="M0 0 C8.52520581 -0.96877339 16.54225715 2.99634292 23.375 7.875 C24.60767857 8.88774007 25.81761979 9.92896502 27 11 C27.55429687 11.50015625 28.10859375 12.0003125 28.6796875 12.515625 C35.20075642 19.19890957 37.20770706 27.9507102 37.4375 37.0625 C36.86647655 53.84322133 29.41102565 67.06622719 17.57470703 78.53076172 C3.99475602 91.20117182 -13.17895592 99.26549557 -31 104 C-31.99604248 104.26852783 -32.99208496 104.53705566 -34.01831055 104.8137207 C-43.08962149 107.0224162 -51.73824471 107.4964084 -61.0402832 107.44604492 C-63.43202579 107.43751951 -65.82138081 107.46644749 -68.21289062 107.49804688 C-90.03396076 107.59650068 -110.10747634 100.23792862 -126.25 85.3125 C-137.00868969 73.82594969 -143.45614091 59.47021282 -146 44 C-146.11085937 43.35675781 -146.22171875 42.71351563 -146.3359375 42.05078125 C-147.90534616 30.91646308 -147.41247128 19.12321136 -146 8 C-145.67 8 -145.34 8 -145 8 C-144.93530518 8.73412109 -144.87061035 9.46824219 -144.80395508 10.22460938 C-142.74568546 32.79667173 -140.19285658 57.37785879 -121.61328125 73.0078125 C-119.13633961 74.80427567 -116.62657515 76.43129509 -114 78 C-113.23042969 78.46148437 -112.46085937 78.92296875 -111.66796875 79.3984375 C-94.50008942 88.79379435 -73.34292003 89.57167069 -54.53125 85.09765625 C-47.73174884 82.9840945 -41.36240453 80.18043847 -35 77 C-34.31728027 76.66194336 -33.63456055 76.32388672 -32.93115234 75.97558594 C-15.72786847 67.30717049 -3.00762813 56.10107892 3.2734375 37.3125 C3.51320313 36.549375 3.75296875 35.78625 4 35 C4.33 34.01 4.66 33.02 5 32 C5.78190961 21.77108415 4.47950098 13.68391235 1 4 C0.64655978 2.67185509 0.30389771 1.34034886 0 0 Z " fill="#F6913C" transform="translate(305,193)"/>
<path d="M0 0 C2.30138359 2.44522007 2.48635914 3.88264204 3 7.125 C2.01902344 7.58648437 1.03804688 8.04796875 0.02734375 8.5234375 C-15.68843893 16.05727184 -29.14427948 25.37571444 -42 37.125 C-42.87140625 37.91261719 -43.7428125 38.70023438 -44.640625 39.51171875 C-63.32971558 57.2663548 -79.17657473 81.39347201 -80.12890625 107.68359375 C-80.24080169 115.091072 -79.89148545 121.94748823 -78 129.125 C-89.18480832 118.67936162 -94.91168844 103.90240372 -95.46875 88.77905273 C-95.73062064 67.06220262 -86.95929439 48.16365489 -74 31.125 C-73.37222656 30.27421875 -72.74445313 29.4234375 -72.09765625 28.546875 C-49.11275075 -1.12868616 -49.11275075 -1.12868616 -34.0625 -3.5625 C-32.93231445 -3.75030029 -32.93231445 -3.75030029 -31.77929688 -3.94189453 C-20.47313766 -5.70100271 -9.98436004 -6.24022502 0 0 Z " fill="#F07537" transform="translate(294,130.875)"/>
<path d="M0 0 C5.52364191 2.61739578 8.48406956 6.74272196 11.05078125 12.2578125 C15.61261219 25.35956391 13.02904817 38.55510973 7.5625 50.875 C-3.87059299 72.64022146 -27.65762445 85.57267592 -50.29296875 92.7109375 C-51.85823219 93.15408013 -53.42775509 93.58230278 -55 94 C-55.99604248 94.26852783 -56.99208496 94.53705566 -58.01831055 94.8137207 C-67.08962149 97.0224162 -75.73824471 97.4964084 -85.0402832 97.44604492 C-87.43202579 97.43751951 -89.82138081 97.46644749 -92.21289062 97.49804688 C-114.03396076 97.59650068 -134.10747634 90.23792862 -150.25 75.3125 C-159.22647588 65.72873611 -168.21740999 51.62778145 -168.3125 38.125 C-168.209375 37.09375 -168.10625 36.0625 -168 35 C-165.9375463 38.09368055 -164.79060297 40.9795702 -163.4375 44.4375 C-155.86747334 62.70007059 -141.24656226 74.88546238 -123.4140625 82.5390625 C-99.12671909 91.70713253 -71.28411849 90.57822884 -47.625 80.1875 C-44.72324807 78.84262693 -41.85599584 77.4391979 -39 76 C-37.88625 75.443125 -36.7725 74.88625 -35.625 74.3125 C-27.64169517 69.98820988 -21.38945274 64.35235867 -15 58 C-14.30777344 57.35417969 -13.61554688 56.70835937 -12.90234375 56.04296875 C-3.55076718 46.60918052 0.03598793 31.47428787 0.1953125 18.5546875 C0.18221457 16.32804017 0.15865536 14.10143149 0.125 11.875 C0.11597656 10.72773438 0.10695313 9.58046875 0.09765625 8.3984375 C0.07432538 5.59873252 0.04159232 2.79948305 0 0 Z " fill="#F9A33E" transform="translate(329,203)"/>
<path d="M0 0 C1.010625 -0.00773437 2.02125 -0.01546875 3.0625 -0.0234375 C8.15789627 0.66769338 11.88178244 3.48133399 15.046875 7.5078125 C16.99544107 11.32508538 16.6997642 15.2418133 16 19.375 C14.70386298 23.25617006 12.76300784 25.78366893 9.5 28.3125 C3.76145738 30.05455758 -2.62139904 30.84547918 -8.26171875 28.390625 C-11.51209708 26.18282085 -13.58565849 24.00252405 -15 20.375 C-15.6842501 15.10786554 -15.63405953 10.69008642 -13.3125 5.875 C-9.26405557 1.49830331 -5.96688725 -0.04566495 0 0 Z " fill="#F4F4F4" transform="translate(313,322.625)"/>
<path d="M0 0 C3.84210084 2.04472319 6.28478782 4.20876999 7.7578125 8.28125 C8.41207895 13.62987819 8.43316507 17.88051875 6.0703125 22.78125 C2.91034851 26.19742728 0.31597342 28.02681613 -4.328125 28.78515625 C-14.30111934 28.96282242 -14.30111934 28.96282242 -18.4296875 25.46875 C-22.86609958 20.92002369 -23.84427421 17.40583833 -23.76953125 11.15234375 C-22.88093029 6.31440519 -19.91057902 3.3852736 -16.2421875 0.28125 C-11.65331892 -2.01318429 -4.80057018 -1.53885873 0 0 Z " fill="#F5F5F5" transform="translate(199.2421875,323.71875)"/>
<path d="M0 0 C3.84210084 2.04472319 6.28478782 4.20876999 7.7578125 8.28125 C8.41207895 13.62987819 8.43316507 17.88051875 6.0703125 22.78125 C2.91034851 26.19742728 0.31597342 28.02681613 -4.328125 28.78515625 C-14.30111934 28.96282242 -14.30111934 28.96282242 -18.4296875 25.46875 C-22.86609958 20.92002369 -23.84427421 17.40583833 -23.76953125 11.15234375 C-22.88093029 6.31440519 -19.91057902 3.3852736 -16.2421875 0.28125 C-11.65331892 -2.01318429 -4.80057018 -1.53885873 0 0 Z " fill="#F5F5F5" transform="translate(160.2421875,323.71875)"/>
<path d="M0 0 C3.031875 -0.061875 6.06375 -0.12375 9.1875 -0.1875 C10.60712036 -0.22846802 10.60712036 -0.22846802 12.05541992 -0.27026367 C16.79877977 -0.31708805 20.25553808 -0.27828393 24 3 C24.98515877 6.61224884 25.41963883 8.90893904 24.0625 12.4375 C23.5365625 13.2109375 23.5365625 13.2109375 23 14 C23.495 14.33 23.99 14.66 24.5 15 C26.5436938 17.72492507 26.42147182 19.79394558 26.29296875 23.12890625 C26 25 26 25 24.6875 26.9375 C21.56827776 28.90145475 18.91413893 29.12047222 15.33203125 29.09765625 C14.52741455 29.09515869 13.72279785 29.09266113 12.89379883 29.09008789 C11.36855591 29.07643188 11.36855591 29.07643188 9.8125 29.0625 C4.9553125 29.0315625 4.9553125 29.0315625 0 29 C0 19.43 0 9.86 0 0 Z " fill="#F7F7F7" transform="translate(103,323)"/>
<path d="M0 0 C6 0 6 0 7.67504883 1.23754883 C8.09810303 1.80497803 8.52115723 2.37240723 8.95703125 2.95703125 C9.42947266 3.57513672 9.90191406 4.19324219 10.38867188 4.83007812 C10.85853516 5.48427734 11.32839844 6.13847656 11.8125 6.8125 C12.30169922 7.45509766 12.79089844 8.09769531 13.29492188 8.75976562 C15.3751709 11.53630823 16.89239381 13.67718142 18 17 C18.66 17 19.32 17 20 17 C20 11.39 20 5.78 20 0 C21.98 0 23.96 0 26 0 C26 9.57 26 19.14 26 29 C20 29 20 29 18.12548828 27.53125 C17.61228027 26.8609375 17.09907227 26.190625 16.5703125 25.5 C16.003125 24.778125 15.4359375 24.05625 14.8515625 23.3125 C14.28179687 22.549375 13.71203125 21.78625 13.125 21 C12.53203125 20.236875 11.9390625 19.47375 11.328125 18.6875 C9.86876491 16.80445473 8.43212829 14.90383821 7 13 C6.67 18.28 6.34 23.56 6 29 C4.02 29 2.04 29 0 29 C0 19.43 0 9.86 0 0 Z " fill="#FBFBFB" transform="translate(339,323)"/>
<path d="M0 0 C2.31 0 4.62 0 7 0 C7.33 3.63 7.66 7.26 8 11 C8.71285156 10.2059375 9.42570313 9.411875 10.16015625 8.59375 C11.12663329 7.56159005 12.09413605 6.53038988 13.0625 5.5 C13.76149414 4.71302734 13.76149414 4.71302734 14.47460938 3.91015625 C17.32950573 0.91931245 18.69257794 0.02729883 22.87109375 -0.34375 C24.41990234 -0.17359375 24.41990234 -0.17359375 26 0 C24.52278578 3.45201639 22.56205999 5.64961936 19.875 8.25 C19.15054688 8.95640625 18.42609375 9.6628125 17.6796875 10.390625 C17.12539062 10.92171875 16.57109375 11.4528125 16 12 C17.6708229 15.79148274 20.10970192 18.92940296 22.625 22.1875 C27 27.87097393 27 27.87097393 27 29 C22.06735751 29.88082902 22.06735751 29.88082902 19 29 C15.86593546 25.98240407 13.42041445 22.60487258 11 19 C7.87393036 20.60480784 7.87393036 20.60480784 7.48828125 22.9453125 C7.43027344 23.66460937 7.37226563 24.38390625 7.3125 25.125 C7.1578125 27.043125 7.1578125 27.043125 7 29 C4.69 29 2.38 29 0 29 C0 19.43 0 9.86 0 0 Z " fill="#F4F4F4" transform="translate(217,323)"/>
<path d="M0 0 C8.25 0 16.5 0 25 0 C25 5.65599744 24.6008568 6.00671558 20.875 9.8125 C16.88397776 14.01788994 13.39263332 18.30250772 10 23 C14.95 23 19.9 23 25 23 C25 24.98 25 26.96 25 29 C16.75 29 8.5 29 0 29 C0 23.375 0 23.375 3.0625 19.79296875 C3.69414062 19.04208984 4.32578125 18.29121094 4.9765625 17.51757812 C5.64429688 16.74865234 6.31203125 15.97972656 7 15.1875 C7.66773438 14.39923828 8.33546875 13.61097656 9.0234375 12.79882812 C10.67139773 10.85658928 12.33429082 8.92703855 14 7 C7.07 6.505 7.07 6.505 0 6 C0 4.02 0 2.04 0 0 Z " fill="#F0F0F0" transform="translate(266,323)"/>
<path d="M0 0 C7.26 0 14.52 0 22 0 C22 1.98 22 3.96 22 6 C17.05 6 12.1 6 7 6 C7 7.98 7 9.96 7 12 C11.29 12 15.58 12 20 12 C20 13.65 20 15.3 20 17 C15.71 17 11.42 17 7 17 C7 19.31 7 21.62 7 24 C11.95 24 16.9 24 22 24 C22 25.65 22 27.3 22 29 C14.74 29 7.48 29 0 29 C0 19.43 0 9.86 0 0 Z " fill="#F5F5F5" transform="translate(376,323)"/>
<path d="M0 0 C0.495 0.99 0.495 0.99 1 2 C-12.12728047 23.55281293 -31.33446345 36.30024748 -55.61328125 42.6875 C-66.19785031 44.89325679 -77.2458157 44.17768734 -88 44 C-88 43.34 -88 42.68 -88 42 C-86.83726562 41.97421875 -85.67453125 41.9484375 -84.4765625 41.921875 C-65.65940881 41.33290939 -49.82630635 37.47913869 -33 29 C-31.88625 28.443125 -30.7725 27.88625 -29.625 27.3125 C-17.92308747 20.97396405 -7.37992901 11.06989352 0 0 Z " fill="#FCC690" transform="translate(323,250)"/>
<path d="M0 0 C4.10198969 1.34246935 5.88827306 2.64878144 8.4375 6.125 C9.03610081 9.71660485 8.69053004 11.56833391 7.1875 14.875 C5.28363263 17.32282948 4.41442549 18.29807625 1.4375 19.125 C-2.68923287 19.05130834 -4.82195415 18.75161572 -8 16.0625 C-10.01364353 12.27685016 -10.66755609 9.31746471 -9.5625 5.125 C-6.46813147 1.42685224 -4.85480091 0.17034389 0 0 Z " fill="#0A0A0A" transform="translate(192.5625,327.875)"/>
<path d="M0 0 C4.10198969 1.34246935 5.88827306 2.64878144 8.4375 6.125 C9.03610081 9.71660485 8.69053004 11.56833391 7.1875 14.875 C5.28363263 17.32282948 4.41442549 18.29807625 1.4375 19.125 C-2.68923287 19.05130834 -4.82195415 18.75161572 -8 16.0625 C-10.01364353 12.27685016 -10.66755609 9.31746471 -9.5625 5.125 C-6.46813147 1.42685224 -4.85480091 0.17034389 0 0 Z " fill="#0A0A0A" transform="translate(153.5625,327.875)"/>
<path d="M0 0 C3.76706021 1.18592636 5.27969919 1.71001871 7.375 5.0625 C8.05331686 8.21814802 8.1144557 10.91421135 7.375 14.0625 C5.09667306 17.44878046 2.30872707 18.87194345 -1.6875 19.6875 C-5.82335968 18.80752985 -7.2170018 17.53285034 -9.625 14.0625 C-10.38964649 10.88318039 -10.42712484 8.23662258 -9.625 5.0625 C-7.19666079 1.28318335 -4.50726256 0.07771142 0 0 Z " fill="#070707" transform="translate(314.625,327.9375)"/>
<path d="M0 0 C6.0546875 -0.1953125 6.0546875 -0.1953125 8 0 C10 2 10 2 10.25 5.5 C10 9 10 9 8 11 C4.875 11.125 4.875 11.125 2 11 C2 12.32 2 13.64 2 15 C1.34 15 0.68 15 0 15 C0 10.05 0 5.1 0 0 Z " fill="#D4D4D4" transform="translate(181,372)"/>
<path d="M0 0 C5.61 0 11.22 0 17 0 C16.01 0.495 16.01 0.495 15 1 C15 1.66 15 2.32 15 3 C15.5775 3.226875 16.155 3.45375 16.75 3.6875 C19.82441864 5.48091087 21.189883 6.89694228 23 10 C23.3294285 13.36120019 23.23524914 16.63463035 23 20 C22.67 20 22.34 20 22 20 C21.7525 18.96875 21.505 17.9375 21.25 16.875 C20.00470698 12.55155312 18.19026816 8.37996716 14.2578125 5.90234375 C11.44417291 4.77786149 8.74350349 4.33053314 5.75 3.875 C4.67234375 3.70742187 3.5946875 3.53984375 2.484375 3.3671875 C1.25460937 3.18542969 1.25460937 3.18542969 0 3 C0 2.01 0 1.02 0 0 Z " fill="#BF4A94" transform="translate(297,115)"/>
<path d="M0 0 C1.79133978 -0.05391993 3.58313899 -0.09275571 5.375 -0.125 C6.37273437 -0.14820313 7.37046875 -0.17140625 8.3984375 -0.1953125 C11 0 11 0 13 2 C12.75 4.0625 12.75 4.0625 12 6 C9.47524538 7.26237731 7.68799534 7.09856404 4.875 7.0625 C3.96492188 7.05347656 3.05484375 7.04445313 2.1171875 7.03515625 C1.41851562 7.02355469 0.71984375 7.01195312 0 7 C0 4.69 0 2.38 0 0 Z " fill="#090909" transform="translate(110,340)"/>
<path d="M0 0 C2.12472576 -0.05386629 4.24983652 -0.09273071 6.375 -0.125 C7.55835938 -0.14820313 8.74171875 -0.17140625 9.9609375 -0.1953125 C13 0 13 0 15 2 C15.1953125 4.1640625 15.1953125 4.1640625 15.125 6.625 C15.10695313 7.44226563 15.08890625 8.25953125 15.0703125 9.1015625 C15.03550781 10.04128906 15.03550781 10.04128906 15 11 C14.34 11 13.68 11 13 11 C12.67 8.36 12.34 5.72 12 3 C11.01 2.67 10.02 2.34 9 2 C9 4.97 9 7.94 9 11 C8.34 11 7.68 11 7 11 C6.67 8.36 6.34 5.72 6 3 C5.01 3 4.02 3 3 3 C2.67 5.64 2.34 8.28 2 11 C1.34 11 0.68 11 0 11 C0 7.37 0 3.74 0 0 Z " fill="#C7C7C7" transform="translate(304,372)"/>
<path d="M0 0 C0.33 0 0.66 0 1 0 C1.08564209 0.78125244 1.17128418 1.56250488 1.25952148 2.36743164 C1.65100892 5.93258425 2.04423892 9.49754262 2.4375 13.0625 C2.57220703 14.29162109 2.70691406 15.52074219 2.84570312 16.78710938 C3.48136606 22.53908373 4.12445427 28.27920118 5 34 C4.01 34 3.02 34 2 34 C1.34 31.69 0.68 29.38 0 27 C-0.33 27 -0.66 27 -1 27 C-1.09471858 17.9280648 -1.14516104 9.01814321 0 0 Z " fill="#CB4A2F" transform="translate(159,201)"/>
<path d="M0 0 C9.375 0 9.375 0 14 1 C14 4.3 14 7.6 14 11 C13.34 11 12.68 11 12 11 C12 8.03 12 5.06 12 2 C11.01 2.33 10.02 2.66 9 3 C8.67 5.64 8.34 8.28 8 11 C7.34 11 6.68 11 6 11 C6 8.03 6 5.06 6 2 C4.68 2 3.36 2 2 2 C2 4.97 2 7.94 2 11 C1.34 11 0.68 11 0 11 C0 7.37 0 3.74 0 0 Z " fill="#DCDCDC" transform="translate(241,372)"/>
<path d="M0 0 C1.45792884 -0.05399736 2.91642712 -0.09279177 4.375 -0.125 C5.18710938 -0.14820313 5.99921875 -0.17140625 6.8359375 -0.1953125 C9 0 9 0 11 2 C11 3.32 11 4.64 11 6 C8.59454362 7.20272819 7.05003047 7.10071472 4.375 7.0625 C3.14910156 7.04896484 3.14910156 7.04896484 1.8984375 7.03515625 C0.95871094 7.01775391 0.95871094 7.01775391 0 7 C0 4.69 0 2.38 0 0 Z " fill="#0C0C0C" transform="translate(110,328)"/>
<path d="M0 0 C1.1446875 0.3403125 1.1446875 0.3403125 2.3125 0.6875 C2.6425 2.3375 2.9725 3.9875 3.3125 5.6875 C1.0025 5.6875 -1.3075 5.6875 -3.6875 5.6875 C-3.6875 6.6775 -3.6875 7.6675 -3.6875 8.6875 C-0.2225 8.1925 -0.2225 8.1925 3.3125 7.6875 C2.9825 8.6775 2.6525 9.6675 2.3125 10.6875 C-0.5625 10.8125 -0.5625 10.8125 -3.6875 10.6875 C-5.6875 8.6875 -5.6875 8.6875 -6 5.75 C-5.6875 2.6875 -5.6875 2.6875 -4.5 0.75 C-2.6875 -0.3125 -2.6875 -0.3125 0 0 Z " fill="#ACACAC" transform="translate(224.6875,372.3125)"/>
<path d="M0 0 C0.66 0.33 1.32 0.66 2 1 C3.37551652 10.62861565 -1.50510572 17.82290438 -6 26 C-7 23 -7 23 -6.07421875 20.65234375 C-5.61660156 19.75644531 -5.15898437 18.86054688 -4.6875 17.9375 C-1.95901456 12.23799709 0 6.38563482 0 0 Z " fill="#CB438B" transform="translate(317,128)"/>
<path d="M0 0 C1.67542976 0.28604898 3.34385343 0.61781233 5 1 C5 2.98 5 4.96 5 7 C3.125 7.625 3.125 7.625 1 8 C-1 6 -1 6 -1.1875 3.4375 C-1 1 -1 1 0 0 Z " fill="#0C0C0C" transform="translate(184,374)"/>
<path d="M0 0 C1.68550367 3.37100733 -0.31136964 6.72014632 -1.4375 10.125 C-1.68048828 10.87910156 -1.92347656 11.63320312 -2.17382812 12.41015625 C-2.77595819 14.27557879 -3.38713463 16.13807683 -4 18 C-4.99 18 -5.98 18 -7 18 C-6.44380331 13.3110507 -5.11817327 9.80075733 -2.9375 5.625 C-2.38964844 4.56539062 -1.84179688 3.50578125 -1.27734375 2.4140625 C-0.85582031 1.61742187 -0.43429688 0.82078125 0 0 Z " fill="#EB906F" transform="translate(209,180)"/>
<path d="M0 0 C1.65 0.33 3.3 0.66 5 1 C5 4.3 5 7.6 5 11 C4.34 11 3.68 11 3 11 C3 8.03 3 5.06 3 2 C1.68 2.33 0.36 2.66 -1 3 C-0.67 2.01 -0.34 1.02 0 0 Z " fill="#CCCCCC" transform="translate(250,372)"/>
<path d="M0 0 C1.65 0 3.3 0 5 0 C5 0.66 5 1.32 5 2 C4.01 2.495 4.01 2.495 3 3 C2.53476937 4.89533342 2.53476937 4.89533342 2.375 7.0625 C2.25125 8.361875 2.1275 9.66125 2 11 C1.34 11 0.68 11 0 11 C0 7.37 0 3.74 0 0 Z " fill="#C3C3C3" transform="translate(203,372)"/>
<path d="M0 0 C0.33 0 0.66 0 1 0 C1 1.98 1 3.96 1 6 C-4.75 7.125 -4.75 7.125 -7 6 C-7 5.01 -7 4.02 -7 3 C-4.69 3 -2.38 3 0 3 C0 2.01 0 1.02 0 0 Z " fill="#3A3A3A" transform="translate(228,375)"/>
<path d="M0 0 C0.33 0 0.66 0 1 0 C1 4.95 1 9.9 1 15 C0.01 14.34 -0.98 13.68 -2 13 C-1.34 8.71 -0.68 4.42 0 0 Z " fill="#FAAC60" transform="translate(322,215)"/>
<path d="M0 0 C2.97 0.33 5.94 0.66 9 1 C8.67 1.99 8.34 2.98 8 4 C5.36 3.67 2.72 3.34 0 3 C0 2.01 0 1.02 0 0 Z " fill="#BC4894" transform="translate(297,115)"/>
<path d="M0 0 C4.29 0 8.58 0 13 0 C12.01 0.495 12.01 0.495 11 1 C11 1.66 11 2.32 11 3 C7.37 2.34 3.74 1.68 0 1 C0 0.67 0 0.34 0 0 Z " fill="#C972AE" transform="translate(301,115)"/>
<path d="M0 0 C0.66 0.33 1.32 0.66 2 1 C1.67 1.33 1.34 1.66 1 2 C1.66 2.66 2.32 3.32 3 4 C-1.455 4.495 -1.455 4.495 -6 5 C-2.25 1.125 -2.25 1.125 0 0 Z " fill="#C93D79" transform="translate(260,124)"/>
</svg>
